HIERARCHY
ROOT root
{
	OFFSET	0	13.1	24.9
	CHANNELS 6  Xposition Yposition Zposition Xrotation Yrotation Zrotation
	JOINT spine_1
	{
		OFFSET	0	9.99999	0
		CHANNELS 3  Xrotation Yrotation Zrotation
		JOINT spine_2
		{
			OFFSET	0	112	-10
			CHANNELS 3  Xrotation Yrotation Zrotation
			JOINT spine_3
			{
				OFFSET	0	206.5	19.3
				CHANNELS 3  Xrotation Yrotation Zrotation
				JOINT spine_4
				{
					OFFSET	0	110.4	14.6
					CHANNELS 3  Xrotation Yrotation Zrotation
					JOINT neck_1
					{
						OFFSET	0	71.8	-50.3
						CHANNELS 3  Xrotation Yrotation Zrotation
						JOINT neck_2
						{
							OFFSET	0	86.2	-25.8
							CHANNELS 3  Xrotation Yrotation Zrotation
							JOINT head_ee
							{
								OFFSET	0	179.8	-8.7
								CHANNELS 3  Xrotation Yrotation Zrotation
								End Site
								{
									OFFSET	1	0	0
								}
							}
						}
					}
					JOINT left_clavicle
					{
						OFFSET	-43.2	22.4	-70.8
						CHANNELS 3  Xrotation Yrotation Zrotation
						JOINT left_shoulder
						{
							OFFSET	-93.9	-5.79999	48.7
							CHANNELS 3  Xrotation Yrotation Zrotation
							JOINT left_elbow
							{
								OFFSET	-291.4	-30.8	15.2
								CHANNELS 3  Xrotation Yrotation Zrotation
								JOINT left_lowarm_twist
								{
									OFFSET	-110.7	-3.89999	13.6
									CHANNELS 3  Xrotation Yrotation Zrotation
									JOINT left_hand
									{
										OFFSET	-110.7	-3.89999	13.6
										CHANNELS 3  Xrotation Yrotation Zrotation
										JOINT left_ee
										{
											OFFSET	-80.8	-5.10001	12.1
											CHANNELS 3  Xrotation Yrotation Zrotation
											End Site
											{
												OFFSET	1	0	0
											}
										}
									}
								}
							}
						}
					}
					JOINT right_clavicle
					{
						OFFSET	43.2	22.4	-70.8
						CHANNELS 3  Xrotation Yrotation Zrotation
						JOINT right_shoulder
						{
							OFFSET	93.9	-5.79999	48.7
							CHANNELS 3  Xrotation Yrotation Zrotation
							JOINT right_elbow
							{
								OFFSET	291.4	-30.8	15.2
								CHANNELS 3  Xrotation Yrotation Zrotation
								JOINT right_lowarm_twist
								{
									OFFSET	110.7	-3.89999	13.6
									CHANNELS 3  Xrotation Yrotation Zrotation
									JOINT right_hand
									{
										OFFSET	110.7	-3.89999	13.6
										CHANNELS 3  Xrotation Yrotation Zrotation
										JOINT right_ee
										{
											OFFSET	80.8	-5.10001	12.1
											CHANNELS 3  Xrotation Yrotation Zrotation
											End Site
											{
												OFFSET	1	0	0
											}
										}
									}
								}
							}
						}
					}
				}
			}
		}
	}
	JOINT left_hip
	{
		OFFSET	-82.8	-127.5	0.300001
		CHANNELS 3  Xrotation Yrotation Zrotation
		JOINT left_knee
		{
			OFFSET	-28.2	-396.7	2.2
			CHANNELS 3  Xrotation Yrotation Zrotation
			JOINT left_ankle
			{
				OFFSET	-11.7	-411.3	35.4
				CHANNELS 3  Xrotation Yrotation Zrotation
				JOINT left_toes
				{
					OFFSET	0	-60	-88.6
					CHANNELS 3  Xrotation Yrotation Zrotation
					JOINT left_foot_ee
					{
						OFFSET	-22.5	-16.5	-42.2
						CHANNELS 3  Xrotation Yrotation Zrotation
						End Site
						{
							OFFSET	1	0	0
						}
					}
				}
			}
		}
	}
	JOINT right_hip
	{
		OFFSET	82.8	-127.5	0.300001
		CHANNELS 3  Xrotation Yrotation Zrotation
		JOINT right_knee
		{
			OFFSET	28.2	-396.7	2.2
			CHANNELS 3  Xrotation Yrotation Zrotation
			JOINT right_ankle
			{
				OFFSET	11.7	-411.3	35.4
				CHANNELS 3  Xrotation Yrotation Zrotation
				JOINT right_toes
				{
					OFFSET	0	-60	-88.6
					CHANNELS 3  Xrotation Yrotation Zrotation
					JOINT right_foot_ee
					{
						OFFSET	22.5	-16.5	-42.2
						CHANNELS 3  Xrotation Yrotation Zrotation
						End Site
						{
							OFFSET	1	0	0
						}
					}
				}
			}
		}
	}
}
MOTION
Frames: 5
Frame Time: 0.02
1822.05 618.241 -1164.21 -27.7937 53.5725 28.2017 7.54089 0.377253 -0.638981 7.54102 0.417148 -0.613682 7.53642 0.465006 -0.578263 7.53614 0.367846 -0.644442 -17.4524 4.32604 -2.37379 -17.544 9.62346 -0.598396 -0.0 0.0 -0.0 3.68873 18.8689 7.7543 -37.4515 -4.71903 64.5776 0.323603 -9.10742 0.0257734 63.2242 -2.06923 -7.39719 0.0695786 3.41855 1.89357 -0.0 0.0 -0.0 12.2859 16.8389 -24.7784 -3.80924 11.3309 -60.5231 1.18979 30.5134 -0.324534 15.7279 -0.283604 1.98279 2.7125 24.774 -7.13908 0.0 0.0 0.0 37.18 -38.3608 -6.02893 -1.25117 0.0494914 0.185627 -9.30649 30.2138 1.49021 5.79541 -0.0 -0.0 -0.0 0.0 -0.0 8.68653 -9.33185 -7.225 -17.5623 -0.316691 -2.66596 36.4366 14.4886 4.82121 -16.2569 0.0 0.0 0.0 0.0 0.0 
1791.01 619.229 -1171.53 -28.4656 53.8104 29.6574 7.59263 0.204731 -0.913884 7.59305 0.262467 -0.899006 7.58834 0.332907 -0.875372 7.58732 0.190486 -0.916959 -16.4232 3.76762 -2.03748 -16.4843 8.3878 -0.56997 -0.0 0.0 -0.0 3.09158 20.0513 6.88252 -38.9556 -4.57621 64.354 0.315437 -8.88131 0.0244967 63.4316 -2.08878 -7.41522 0.0612451 3.35536 1.81221 -0.0 0.0 -0.0 12.2854 16.6424 -24.7866 -5.96744 10.4095 -61.088 1.08475 28.2508 -0.27299 16.0481 -0.283686 2.02369 2.64443 24.6702 -6.74754 0.0 0.0 0.0 37.1922 -38.3279 -5.87827 -3.07457 0.114324 0.457943 -7.73271 28.494 1.2216 6.48686 -0.0 -0.0 -0.0 0.0 -0.0 7.7022 -9.49885 -6.63357 -18.596 -0.309704 -2.82441 37.7785 13.8532 4.92924 -15.6941 0.0 0.0 0.0 0.0 0.0 
1772.47 618.891 -1178.15 -28.9951 53.4917 30.714 7.63222 0.0859459 -1.08878 7.63286 0.155049 -1.0811 7.62898 0.239499 -1.06559 7.6274 0.0682149 -1.09003 -15.7016 3.37257 -1.80077 -15.7459 7.50788 -0.536699 -0.0 0.0 -0.0 2.80582 21.124 6.49545 -39.9165 -4.47417 64.4413 0.308951 -8.70151 0.0235055 63.5868 -2.10345 -7.42867 0.054014 3.31433 1.74733 -0.0 0.0 -0.0 12.1633 16.4133 -24.5161 -7.68424 9.68248 -61.4543 1.00995 26.5782 -0.238544 16.2813 -0.283602 2.05347 2.59653 24.5949 -6.47296 0.0 0.0 0.0 37.2269 -38.3159 -5.70994 -4.35347 0.154604 0.650078 -6.59148 27.2827 1.03187 6.97484 -0.0 -0.0 -0.0 0.0 -0.0 7.19515 -9.62573 -6.37417 -19.3283 -0.303026 -2.93656 38.7061 13.4327 5.002 -15.3012 0.0 0.0 0.0 0.0 0.0 
1753.94 622.529 -1178.88 -28.6711 53.7809 30.6132 7.66348 -0.0478925 -1.16793 7.66424 0.0265179 -1.16861 7.66252 0.117537 -1.16299 7.66064 -0.067598 -1.16696 -15.3503 3.27218 -1.09628 -15.39 6.90735 0.0705344 -0.0 0.0 -0.0 3.26516 21.8594 7.17389 -37.6302 -5.00347 64.012 0.293407 -8.26995 0.0212118 63.7455 -2.11849 -7.44238 -0.231314 4.07986 0.184638 -0.0 0.0 -0.0 11.9026 15.942 -23.9394 -9.7665 8.91049 -61.8336 0.938594 24.9358 -0.207534 16.3939 -0.283518 2.06785 2.58691 24.4862 -6.46423 0.0 0.0 0.0 36.5806 -38.0744 -4.9873 -5.72575 0.193041 0.857166 -4.31693 28.0628 0.676445 7.7516 -0.0 -0.0 -0.0 0.0 -0.0 7.97278 -9.32745 -6.51355 -19.8313 -0.297608 -3.01355 37.8923 12.7511 4.90832 -15.1632 0.0 0.0 0.0 0.0 0.0 
1728.34 627.372 -1189.5 -29.1274 54.6396 31.9675 7.65394 -0.274366 -1.29723 7.65485 -0.191271 -1.31205 7.65773 -0.0883502 -1.32297 7.65541 -0.296163 -1.29243 -15.7067 2.49692 -0.215609 -15.7292 4.90838 0.653566 -0.0 0.0 -0.0 4.86075 21.2723 9.48328 -31.2028 -6.53027 62.2823 0.192685 -5.45253 0.00917535 64.3114 -2.17243 -7.49094 -0.535339 4.97483 -1.43455 -0.0 0.0 -0.0 11.3734 15.7187 -22.7442 -12.1989 7.82804 -63.3981 0.875076 23.4359 -0.181509 16.6905 -0.283162 2.10574 2.61306 23.8639 -6.94372 0.0 0.0 0.0 35.886 -37.7803 -4.20445 -7.58264 0.237129 1.1387 0.313844 28.9353 -0.0490075 8.43835 -0.0 -0.0 -0.0 0.0 -0.0 10.3396 -6.6021 -6.12418 -25.8 -0.18189 -3.92174 39.178 10.1724 4.95888 -14.1252 0.0 0.0 0.0 0.0 0.0 
